<svg width="103" height="47" viewBox="0 0 103 47" fill="none" xmlns="http://www.w3.org/2000/svg">
<path d="M19.019 23.627L9.23911 7.74023H0V38.8106H9.23911V23.1874L19.019 38.8106H28.2581V7.74023H19.019V23.627Z" fill="white"/>
<path d="M40.7722 31.0428V26.6549H49.9279V19.3256H40.7722V15.5081H46.465L46.4589 15.505V7.74023H31.5341V38.8106H46.4589V31.0428H40.7722Z" fill="white"/>
<path d="M88.9712 7.74023V15.505L85.9368 17.3242V29.1896L88.9712 31.0088V38.8106H95.1759V15.4638H103V7.74023H88.9712Z" fill="white"/>
<path opacity="0.65" d="M51.1779 15.5079H46.4657L59.386 23.2572L63.1198 21.018V15.5048L67.7156 12.7477L46.4595 0V7.74005H51.1779V15.5079Z" fill="#EC691A"/>
<path d="M46.4657 15.5081H51.1779V7.74023H46.4595V15.505L46.4657 15.5081Z" fill="#EC691A"/>
<path opacity="0.5" d="M46.4657 15.5081H51.1779V7.74023H46.4595V15.505L46.4657 15.5081Z" fill="#EC691A"/>
<path opacity="0.35" d="M63.1198 31.0082V25.495V21.0176L59.386 23.2568L46.4595 31.0082V31.0422H51.1779V38.81H46.4595V46.513L67.7156 33.7653L63.1198 31.0082Z" fill="#EC691A"/>
<path d="M51.1769 31.043H46.4595V38.8108H51.1769V31.043Z" fill="#EC691A"/>
<path d="M51.1769 31.043H46.4595V38.8108H51.1769V31.043Z" fill="white"/>
<path opacity="0.88" d="M85.9372 29.19L76.0461 23.2578L72.3124 25.496V31.0092L67.7155 33.7663L88.9716 46.514V38.811H85.9372V29.19Z" fill="#EC691A"/>
<path d="M85.9368 29.1895V38.8105H88.9712V31.0086L85.9368 29.1895Z" fill="#EC691A"/>
<path opacity="0.88" d="M85.9368 29.1895V38.8105H88.9712V31.0086L85.9368 29.1895Z" fill="#EC691A"/>
<path opacity="0.3" d="M72.3124 31.0083V25.4951L67.7155 28.2522L72.3124 31.0083Z" fill="#EC691A"/>
<path opacity="0.88" d="M72.3124 31.0083V25.4951L67.7155 28.2522L72.3124 31.0083Z" fill="#EC691A"/>
<path opacity="0.3" d="M67.7154 28.2529L63.1195 31.009L67.7154 33.7661L72.3123 31.009L67.7154 28.2529Z" fill="#EC691A"/>
<path opacity="0.88" d="M67.7154 28.2529L63.1195 31.009L67.7154 33.7661L72.3123 31.009L67.7154 28.2529Z" fill="#EC691A"/>
<path opacity="0.2" d="M72.3123 25.495L76.0461 23.2568L72.3123 21.0176V25.495Z" fill="#EC691A"/>
<path opacity="0.88" d="M72.3123 25.495L76.0461 23.2568L72.3123 21.0176V25.495Z" fill="#EC691A"/>
<path opacity="0.5" d="M63.1195 15.5049V21.018L67.7154 18.2609L63.1195 15.5049Z" fill="#EC691A"/>
<path opacity="0.2" d="M63.1195 15.5049V21.018L67.7154 18.2609L63.1195 15.5049Z" fill="#EC691A"/>
<path opacity="0.88" d="M63.1195 15.5049V21.018L67.7154 18.2609L63.1195 15.5049Z" fill="#EC691A"/>
<path opacity="0.3" d="M67.7154 18.2607L63.1195 21.0178V25.4953L67.7154 28.2524L72.3123 25.4953V21.0178L67.7154 18.2607Z" fill="#EC691A"/>
<path opacity="0.88" d="M67.7154 18.2607L63.1195 21.0178V25.4953L67.7154 28.2524L72.3123 25.4953V21.0178L67.7154 18.2607Z" fill="#EC691A"/>
<path opacity="0.3" d="M63.1195 31.0083L67.7154 28.2522L63.1195 25.4951V31.0083Z" fill="#EC691A"/>
<path opacity="0.2" d="M63.1195 31.0083L67.7154 28.2522L63.1195 25.4951V31.0083Z" fill="#EC691A"/>
<path opacity="0.88" d="M63.1195 31.0083L67.7154 28.2522L63.1195 25.4951V31.0083Z" fill="#EC691A"/>
<path opacity="0.35" d="M72.3124 21.018L76.0461 23.2572L85.9372 17.324V15.4636H78.1968V7.74005H88.9716V0L67.7155 12.7477L72.3124 15.5048V21.018Z" fill="#EC691A"/>
<path d="M78.1966 15.4638H85.9371V17.3242L88.9715 15.505V7.74023H78.1966V15.4638Z" fill="#EC691A"/>
<path d="M78.1966 15.4638H85.9371V17.3242L88.9715 15.505V7.74023H78.1966V15.4638Z" fill="white"/>
<path opacity="0.74" d="M67.7154 18.2612L72.3123 15.5051L67.7154 12.748L63.1195 15.5051L67.7154 18.2612Z" fill="#EC691A"/>
<path opacity="0.3" d="M72.3124 15.5049L67.7155 18.2609L72.3124 21.018V15.5049Z" fill="#EC691A"/>
<path opacity="0.4" d="M72.3124 15.5049L67.7155 18.2609L72.3124 21.018V15.5049Z" fill="#EC691A"/>
</svg>
